# rebuilt from silh_vanilla_long_2.obj with a 45deg smoothing angle
v 1.470364 -0.000000 -2.849121
v 1.470364 -0.000000 -2.849121
v 1.795074 -0.000000 -2.401143
v 1.795074 -0.000000 -2.401143
v -0.000000 0.000321 -1.903831
v 2.000166 0.000321 -1.903831
v 2.000166 0.000321 -1.903831
v 1.042536 -0.000000 -3.163317
v 1.042536 -0.000000 -3.163317
v 2.000166 0.000322 1.915038
v 2.000166 0.000322 1.915038
v 0.614881 -0.000000 -3.363181
v 0.614881 -0.000000 -3.363181
v -0.000000 0.000322 1.915038
v 1.470364 1.000000 -2.849121
v 1.470364 1.000000 -2.849121
v 1.042536 1.000000 -3.163317
v 1.042536 1.000000 -3.163317
v 1.795074 1.000000 -2.401144
v 1.795074 1.000000 -2.401144
v 0.614881 1.000000 -3.363182
v 0.614881 1.000000 -3.363182
v -0.000000 0.999678 -1.903831
v 2.000166 0.999678 -1.903831
v 2.000166 0.999678 -1.903831
v -0.000000 1.000000 -3.460686
v -0.000000 1.000000 -3.460686
v -0.000000 0.999679 1.915038
v 2.000166 0.999679 1.915038
v 2.000166 0.999679 1.915038
v -0.000000 -0.000000 -3.460686
v -0.000000 -0.000000 -3.460686
v 1.821423 0.000000 2.387772
v 1.821423 0.000000 2.387772
v 1.821423 1.000000 2.387771
v 1.821423 1.000000 2.387771
v -0.614881 1.000000 -3.363182
v -0.614881 1.000000 -3.363182
v 1.529514 0.000000 2.783466
v 1.529514 0.000000 2.783466
v 1.529514 1.000000 2.783466
v 1.529514 1.000000 2.783466
v 1.071173 1.000000 3.162351
v 1.071173 1.000000 3.162351
v -2.000043 0.999679 1.915038
v -2.000043 0.999679 1.915038
v 1.071173 0.000000 3.162352
v 1.071173 0.000000 3.162352
v 0.614881 0.000000 3.370249
v 0.614881 0.000000 3.370249
v -0.000000 0.000000 3.467756
v -0.000000 0.000000 3.467756
v 0.614881 1.000000 3.370249
v 0.614881 1.000000 3.370249
v -0.614881 -0.000000 -3.363181
v -0.614881 -0.000000 -3.363181
v -0.000000 1.000000 3.467755
v -0.000000 1.000000 3.467755
v -1.042536 1.000000 -3.163317
v -1.042536 1.000000 -3.163317
v -0.614881 0.000000 3.370249
v -0.614881 0.000000 3.370249
v -1.042536 -0.000000 -3.163317
v -1.042536 -0.000000 -3.163317
v -0.614881 1.000000 3.370249
v -0.614881 1.000000 3.370249
v -1.470364 1.000000 -2.849121
v -1.470364 1.000000 -2.849121
v -1.071173 0.000000 3.162352
v -1.071173 0.000000 3.162352
v -1.470364 -0.000000 -2.849121
v -1.470364 -0.000000 -2.849121
v -1.795074 1.000000 -2.401144
v -1.795074 1.000000 -2.401144
v -1.071173 1.000000 3.162351
v -1.071173 1.000000 3.162351
v -1.795074 -0.000000 -2.401143
v -1.795074 -0.000000 -2.401143
v -2.000043 0.999678 -1.903831
v -2.000043 0.999678 -1.903831
v -2.000043 0.000321 -1.903831
v -2.000043 0.000321 -1.903831
v -2.000043 0.000322 1.915038
v -2.000043 0.000322 1.915038
v -1.529514 0.000000 2.783466
v -1.529514 0.000000 2.783466
v -1.529514 1.000000 2.783466
v -1.529514 1.000000 2.783466
v -1.821423 1.000000 2.387771
v -1.821423 1.000000 2.387771
v -1.821423 0.000000 2.387772
v -1.821423 0.000000 2.387772
vt 0.325826 0.000000
vt 0.325826 0.000000
vt 0.352171 0.000000
vt 0.352171 0.000000
vt 0.250000 0.000322
vt 0.378927 0.000322
vt 0.378927 0.000322
vt 0.300669 0.000000
vt 0.300669 0.000000
vt 0.621540 0.000322
vt 0.621540 0.000322
vt 0.278780 0.000000
vt 0.278780 0.000000
vt 0.750000 0.000322
vt 0.325826 0.999999
vt 0.325826 0.999999
vt 0.300669 0.999999
vt 0.300669 0.999999
vt 0.352171 0.999999
vt 0.352171 0.999999
vt 0.278780 0.999999
vt 0.278780 0.999999
vt 0.250000 0.999678
vt 0.378927 0.999678
vt 0.378927 0.999678
vt 0.250000 0.999999
vt 0.250000 0.999999
vt 0.750000 0.999678
vt 0.621540 0.999678
vt 0.621540 0.999678
vt 0.250000 0.000000
vt 0.250000 0.000000
vt 0.646286 0.000001
vt 0.646286 0.000001
vt 0.646286 1.000000
vt 0.646286 1.000000
vt 0.221220 0.999999
vt 0.221220 0.999999
vt 0.670031 0.000001
vt 0.670031 0.000001
vt 0.670031 1.000000
vt 0.670031 1.000000
vt 0.698021 1.000000
vt 0.698021 1.000000
vt 0.878455 0.999678
vt 0.878455 0.999678
vt 0.698021 0.000001
vt 0.698021 0.000001
vt 0.721279 0.000001
vt 0.721279 0.000001
vt 0.750000 0.000001
vt 0.750000 0.000001
vt 0.721279 1.000000
vt 0.721279 1.000000
vt 0.221220 0.000000
vt 0.221220 0.000000
vt 0.750000 1.000000
vt 0.750000 1.000000
vt 0.199331 0.999999
vt 0.199331 0.999999
vt 0.778721 0.000001
vt 0.778721 0.000001
vt 0.199331 0.000000
vt 0.199331 0.000000
vt 0.778721 1.000000
vt 0.778721 1.000000
vt 0.174174 0.999999
vt 0.174174 0.999999
vt 0.801979 0.000001
vt 0.801979 0.000001
vt 0.174174 0.000000
vt 0.174174 0.000000
vt 0.147829 0.999999
vt 0.147829 0.999999
vt 0.801979 1.000000
vt 0.801979 1.000000
vt 0.147829 0.000000
vt 0.147829 0.000000
vt 0.121078 0.999678
vt 0.121078 0.999678
vt 0.121078 0.000322
vt 0.121078 0.000322
vt 0.878455 0.000322
vt 0.878455 0.000322
vt 0.829969 0.000001
vt 0.829969 0.000001
vt 0.829969 1.000000
vt 0.829969 1.000000
vt 0.853714 1.000000
vt 0.853714 1.000000
vt 0.853714 0.000001
vt 0.853714 0.000001
vn -0.000133 -1.000000 0.000134
vn 0.671666 -0.000000 -0.740855
vn -0.000075 -1.000000 0.000377
vn 0.853214 -0.000000 -0.521562
vn -0.000000 -1.000000 0.000201
vn 0.000000 -1.000000 0.000323
vn 0.980936 -0.000000 -0.194331
vn -0.000101 -1.000000 0.000172
vn 0.481628 -0.000000 -0.876376
vn 0.000000 -1.000000 -0.000227
vn 0.983710 0.000000 0.179763
vn -0.000059 -1.000000 0.000195
vn 0.247695 -0.000000 -0.968838
vn -0.000000 -1.000000 -0.000205
vn 0.745032 -0.000000 -0.667029
vn -0.000133 1.000000 0.000133
vn 0.538045 -0.000000 -0.842916
vn -0.000101 1.000000 0.000171
vn 0.891717 -0.000000 -0.452593
vn -0.000075 1.000000 0.000377
vn 0.337399 -0.000000 -0.941362
vn -0.000059 1.000000 0.000195
vn -0.000000 1.000000 0.000200
vn 0.000000 1.000000 0.000215
vn 0.980936 -0.000000 -0.194331
vn 0.000000 1.000000 0.000206
vn 0.052785 -0.000000 -0.998606
vn -0.000000 1.000000 -0.000205
vn 0.983710 0.000000 0.179763
vn 0.000000 1.000000 -0.000340
vn -0.052785 -0.000000 -0.998606
vn -0.000000 -1.000000 0.000207
vn 0.899312 0.000000 0.437307
vn -0.000074 -1.000000 -0.000394
vn -0.000074 1.000000 -0.000395
vn 0.855397 0.000000 0.517973
vn -0.247695 -0.000000 -0.968838
vn 0.000059 1.000000 0.000195
vn -0.000136 -1.000000 -0.000130
vn 0.753856 0.000000 0.657040
vn -0.000136 1.000000 -0.000130
vn 0.697622 0.000000 0.716466
vn -0.000104 1.000000 -0.000168
vn 0.492575 0.000000 0.870270
vn -0.000000 1.000000 -0.000227
vn -0.983731 0.000000 0.179650
vn -0.000104 -1.000000 -0.000168
vn 0.567323 0.000000 0.823495
vn -0.000059 -1.000000 -0.000196
vn 0.331301 0.000000 0.943525
vn 0.000000 -1.000000 -0.000207
vn 0.052786 0.000000 0.998606
vn 0.244600 0.000000 0.969624
vn -0.000059 1.000000 -0.000196
vn -0.337399 -0.000000 -0.941362
vn 0.000059 -1.000000 0.000195
vn -0.052786 0.000000 0.998606
vn 0.000000 1.000000 -0.000207
vn -0.481628 -0.000000 -0.876376
vn 0.000101 1.000000 0.000171
vn -0.244600 0.000000 0.969624
vn 0.000059 -1.000000 -0.000196
vn -0.538045 -0.000000 -0.842916
vn 0.000101 -1.000000 0.000172
vn -0.331301 0.000000 0.943525
vn 0.000059 1.000000 -0.000196
vn -0.671666 -0.000000 -0.740855
vn 0.000133 1.000000 0.000133
vn -0.492575 0.000000 0.870270
vn 0.000104 -1.000000 -0.000168
vn -0.745032 -0.000000 -0.667029
vn 0.000133 -1.000000 0.000134
vn 0.000075 1.000000 0.000377
vn -0.853250 -0.000000 -0.521502
vn -0.567323 0.000000 0.823495
vn 0.000104 1.000000 -0.000168
vn 0.000075 -1.000000 0.000377
vn -0.891781 -0.000000 -0.452466
vn 0.000000 1.000000 0.000323
vn -0.980957 -0.000000 -0.194227
vn 0.000000 -1.000000 0.000216
vn -0.980957 -0.000000 -0.194227
vn -0.983731 0.000000 0.179650
vn -0.000000 -1.000000 -0.000340
vn 0.000136 -1.000000 -0.000130
vn -0.697622 0.000000 0.716466
vn 0.000136 1.000000 -0.000130
vn -0.753856 0.000000 0.657040
vn 0.000074 1.000000 -0.000395
vn -0.899379 0.000000 0.437169
vn 0.000074 -1.000000 -0.000394
vn -0.855436 0.000000 0.517909
f 1/1/1 3/3/3 5/5/5
f 3/3/3 6/6/6 5/5/5
f 8/8/8 1/1/1 5/5/5
f 5/5/5 6/6/6 10/10/10
f 12/12/12 8/8/8 5/5/5
f 14/14/14 5/5/5 10/10/10
f 2/2/2 15/15/15 4/4/4
f 9/9/9 17/17/17 2/2/2
f 17/17/17 15/15/15 2/2/2
f 15/15/15 19/19/19 4/4/4
f 4/4/4 19/19/19 7/7/7
f 21/21/21 17/17/17 9/9/9
f 13/13/13 21/21/21 9/9/9
f 16/16/16 18/18/18 23/23/23
f 20/20/20 16/16/16 23/23/23
f 18/18/18 22/22/22 23/23/23
f 24/24/24 20/20/20 23/23/23
f 19/19/19 25/25/25 7/7/7
f 22/22/22 26/26/26 23/23/23
f 27/27/27 21/21/21 13/13/13
f 24/24/24 23/23/23 28/28/28
f 7/7/7 25/25/25 29/29/29
f 30/30/30 24/24/24 28/28/28
f 11/11/11 7/7/7 29/29/29
f 31/31/31 27/27/27 13/13/13
f 32/32/32 12/12/12 5/5/5
f 11/11/11 29/29/29 33/33/33
f 10/10/10 34/34/34 14/14/14
f 35/35/35 30/30/30 28/28/28
f 29/29/29 36/36/36 33/33/33
f 37/37/37 27/27/27 31/31/31
f 26/26/26 38/38/38 23/23/23
f 34/34/34 39/39/39 14/14/14
f 33/33/33 36/36/36 40/40/40
f 41/41/41 35/35/35 28/28/28
f 36/36/36 42/42/42 40/40/40
f 43/43/43 41/41/41 28/28/28
f 28/28/28 23/23/23 45/45/45
f 39/39/39 47/47/47 14/14/14
f 40/40/40 42/42/42 48/48/48
f 42/42/42 44/44/44 48/48/48
f 47/47/47 49/49/49 14/14/14
f 48/48/48 44/44/44 50/50/50
f 49/49/49 51/51/51 14/14/14
f 44/44/44 53/53/53 50/50/50
f 54/54/54 43/43/43 28/28/28
f 50/50/50 53/53/53 52/52/52
f 55/55/55 37/37/37 31/31/31
f 56/56/56 32/32/32 5/5/5
f 53/53/53 57/57/57 52/52/52
f 58/58/58 54/54/54 28/28/28
f 59/59/59 37/37/37 55/55/55
f 38/38/38 60/60/60 23/23/23
f 52/52/52 57/57/57 61/61/61
f 51/51/51 62/62/62 14/14/14
f 63/63/63 59/59/59 55/55/55
f 64/64/64 56/56/56 5/5/5
f 57/57/57 65/65/65 61/61/61
f 66/66/66 58/58/58 28/28/28
f 67/67/67 59/59/59 63/63/63
f 60/60/60 68/68/68 23/23/23
f 61/61/61 65/65/65 69/69/69
f 62/62/62 70/70/70 14/14/14
f 71/71/71 67/67/67 63/63/63
f 72/72/72 64/64/64 5/5/5
f 68/68/68 73/73/73 23/23/23
f 74/74/74 67/67/67 71/71/71
f 65/65/65 75/75/75 69/69/69
f 76/76/76 66/66/66 28/28/28
f 77/77/77 72/72/72 5/5/5
f 78/78/78 74/74/74 71/71/71
f 73/73/73 79/79/79 23/23/23
f 80/80/80 74/74/74 78/78/78
f 23/23/23 79/79/79 45/45/45
f 81/81/81 77/77/77 5/5/5
f 82/82/82 80/80/80 78/78/78
f 81/81/81 5/5/5 14/14/14
f 80/80/80 82/82/82 83/83/83
f 46/46/46 80/80/80 83/83/83
f 84/84/84 81/81/81 14/14/14
f 70/70/70 85/85/85 14/14/14
f 69/69/69 75/75/75 86/86/86
f 87/87/87 76/76/76 28/28/28
f 75/75/75 88/88/88 86/86/86
f 89/89/89 28/28/28 45/45/45
f 90/90/90 46/46/46 83/83/83
f 89/89/89 87/87/87 28/28/28
f 91/91/91 84/84/84 14/14/14
f 85/85/85 91/91/91 14/14/14
f 86/86/86 88/88/88 92/92/92
f 92/92/92 90/90/90 83/83/83
f 88/88/88 90/90/90 92/92/92
