# silhouette_wireframe.obj - 3D wireframe cage
o wireframe_cage
v 1.03923 1.04000 0.00780
v 1.03923 0.96000 0.00780
v 0.96077 1.04000 -0.00780
v 0.96077 0.96000 -0.00780
v 0.96311 1.04000 0.39049
v 0.96311 0.96000 0.39049
v 0.88465 1.04000 0.37488
v 0.88465 0.96000 0.37488
v 0.95714 1.04000 0.40491
v 0.95714 0.96000 0.40491
v 0.89062 1.04000 0.36046
v 0.89062 0.96000 0.36046
v 0.74037 1.04000 0.72933
v 0.74037 0.96000 0.72933
v 0.67385 1.04000 0.68488
v 0.67385 0.96000 0.68488
v 0.72933 1.04000 0.74037
v 0.72933 0.96000 0.74037
v 0.68488 1.04000 0.67385
v 0.68488 0.96000 0.67385
v 0.40491 1.04000 0.95714
v 0.40491 0.96000 0.95714
v 0.36046 1.04000 0.89062
v 0.36046 0.96000 0.89062
v 0.39049 1.04000 0.96311
v 0.39049 0.96000 0.96311
v 0.37488 1.04000 0.88465
v 0.37488 0.96000 0.88465
v 0.00780 1.04000 1.03923
v 0.00780 0.96000 1.03923
v -0.00780 1.04000 0.96077
v -0.00780 0.96000 0.96077
v -0.00780 1.04000 1.03923
v -0.00780 0.96000 1.03923
v 0.00780 1.04000 0.96077
v 0.00780 0.96000 0.96077
v -0.39049 1.04000 0.96311
v -0.39049 0.96000 0.96311
v -0.37488 1.04000 0.88465
v -0.37488 0.96000 0.88465
v -0.40491 1.04000 0.95714
v -0.40491 0.96000 0.95714
v -0.36046 1.04000 0.89062
v -0.36046 0.96000 0.89062
v -0.72933 1.04000 0.74037
v -0.72933 0.96000 0.74037
v -0.68488 1.04000 0.67385
v -0.68488 0.96000 0.67385
v -0.74037 1.04000 0.72933
v -0.74037 0.96000 0.72933
v -0.67385 1.04000 0.68488
v -0.67385 0.96000 0.68488
v -0.95714 1.04000 0.40491
v -0.95714 0.96000 0.40491
v -0.89062 1.04000 0.36046
v -0.89062 0.96000 0.36046
v -0.96311 1.04000 0.39049
v -0.96311 0.96000 0.39049
v -0.88465 1.04000 0.37488
v -0.88465 0.96000 0.37488
v -1.03923 1.04000 0.00780
v -1.03923 0.96000 0.00780
v -0.96077 1.04000 -0.00780
v -0.96077 0.96000 -0.00780
v -1.03923 1.04000 -0.00780
v -1.03923 0.96000 -0.00780
v -0.96077 1.04000 0.00780
v -0.96077 0.96000 0.00780
v -0.96311 1.04000 -0.39049
v -0.96311 0.96000 -0.39049
v -0.88465 1.04000 -0.37488
v -0.88465 0.96000 -0.37488
v -0.95714 1.04000 -0.40491
v -0.95714 0.96000 -0.40491
v -0.89062 1.04000 -0.36046
v -0.89062 0.96000 -0.36046
v -0.74037 1.04000 -0.72933
v -0.74037 0.96000 -0.72933
v -0.67385 1.04000 -0.68488
v -0.67385 0.96000 -0.68488
v -0.72933 1.04000 -0.74037
v -0.72933 0.96000 -0.74037
v -0.68488 1.04000 -0.67385
v -0.68488 0.96000 -0.67385
v -0.40491 1.04000 -0.95714
v -0.40491 0.96000 -0.95714
v -0.36046 1.04000 -0.89062
v -0.36046 0.96000 -0.89062
v -0.39049 1.04000 -0.96311
v -0.39049 0.96000 -0.96311
v -0.37488 1.04000 -0.88465
v -0.37488 0.96000 -0.88465
v -0.00780 1.04000 -1.03923
v -0.00780 0.96000 -1.03923
v 0.00780 1.04000 -0.96077
v 0.00780 0.96000 -0.96077
v 0.00780 1.04000 -1.03923
v 0.00780 0.96000 -1.03923
v -0.00780 1.04000 -0.96077
v -0.00780 0.96000 -0.96077
v 0.39049 1.04000 -0.96311
v 0.39049 0.96000 -0.96311
v 0.37488 1.04000 -0.88465
v 0.37488 0.96000 -0.88465
v 0.40491 1.04000 -0.95714
v 0.40491 0.96000 -0.95714
v 0.36046 1.04000 -0.89062
v 0.36046 0.96000 -0.89062
v 0.72933 1.04000 -0.74037
v 0.72933 0.96000 -0.74037
v 0.68488 1.04000 -0.67385
v 0.68488 0.96000 -0.67385
v 0.74037 1.04000 -0.72933
v 0.74037 0.96000 -0.72933
v 0.67385 1.04000 -0.68488
v 0.67385 0.96000 -0.68488
v 0.95714 1.04000 -0.40491
v 0.95714 0.96000 -0.40491
v 0.89062 1.04000 -0.36046
v 0.89062 0.96000 -0.36046
v 0.96311 1.04000 -0.39049
v 0.96311 0.96000 -0.39049
v 0.88465 1.04000 -0.37488
v 0.88465 0.96000 -0.37488
v 1.03923 1.04000 -0.00780
v 1.03923 0.96000 -0.00780
v 0.96077 1.04000 0.00780
v 0.96077 0.96000 0.00780
v 1.03923 0.04000 0.00780
v 1.03923 -0.04000 0.00780
v 0.96077 0.04000 -0.00780
v 0.96077 -0.04000 -0.00780
v 0.96311 0.04000 0.39049
v 0.96311 -0.04000 0.39049
v 0.88465 0.04000 0.37488
v 0.88465 -0.04000 0.37488
v 0.95714 0.04000 0.40491
v 0.95714 -0.04000 0.40491
v 0.89062 0.04000 0.36046
v 0.89062 -0.04000 0.36046
v 0.74037 0.04000 0.72933
v 0.74037 -0.04000 0.72933
v 0.67385 0.04000 0.68488
v 0.67385 -0.04000 0.68488
v 0.72933 0.04000 0.74037
v 0.72933 -0.04000 0.74037
v 0.68488 0.04000 0.67385
v 0.68488 -0.04000 0.67385
v 0.40491 0.04000 0.95714
v 0.40491 -0.04000 0.95714
v 0.36046 0.04000 0.89062
v 0.36046 -0.04000 0.89062
v 0.39049 0.04000 0.96311
v 0.39049 -0.04000 0.96311
v 0.37488 0.04000 0.88465
v 0.37488 -0.04000 0.88465
v 0.00780 0.04000 1.03923
v 0.00780 -0.04000 1.03923
v -0.00780 0.04000 0.96077
v -0.00780 -0.04000 0.96077
v -0.00780 0.04000 1.03923
v -0.00780 -0.04000 1.03923
v 0.00780 0.04000 0.96077
v 0.00780 -0.04000 0.96077
v -0.39049 0.04000 0.96311
v -0.39049 -0.04000 0.96311
v -0.37488 0.04000 0.88465
v -0.37488 -0.04000 0.88465
v -0.40491 0.04000 0.95714
v -0.40491 -0.04000 0.95714
v -0.36046 0.04000 0.89062
v -0.36046 -0.04000 0.89062
v -0.72933 0.04000 0.74037
v -0.72933 -0.04000 0.74037
v -0.68488 0.04000 0.67385
v -0.68488 -0.04000 0.67385
v -0.74037 0.04000 0.72933
v -0.74037 -0.04000 0.72933
v -0.67385 0.04000 0.68488
v -0.67385 -0.04000 0.68488
v -0.95714 0.04000 0.40491
v -0.95714 -0.04000 0.40491
v -0.89062 0.04000 0.36046
v -0.89062 -0.04000 0.36046
v -0.96311 0.04000 0.39049
v -0.96311 -0.04000 0.39049
v -0.88465 0.04000 0.37488
v -0.88465 -0.04000 0.37488
v -1.03923 0.04000 0.00780
v -1.03923 -0.04000 0.00780
v -0.96077 0.04000 -0.00780
v -0.96077 -0.04000 -0.00780
v -1.03923 0.04000 -0.00780
v -1.03923 -0.04000 -0.00780
v -0.96077 0.04000 0.00780
v -0.96077 -0.04000 0.00780
v -0.96311 0.04000 -0.39049
v -0.96311 -0.04000 -0.39049
v -0.88465 0.04000 -0.37488
v -0.88465 -0.04000 -0.37488
v -0.95714 0.04000 -0.40491
v -0.95714 -0.04000 -0.40491
v -0.89062 0.04000 -0.36046
v -0.89062 -0.04000 -0.36046
v -0.74037 0.04000 -0.72933
v -0.74037 -0.04000 -0.72933
v -0.67385 0.04000 -0.68488
v -0.67385 -0.04000 -0.68488
v -0.72933 0.04000 -0.74037
v -0.72933 -0.04000 -0.74037
v -0.68488 0.04000 -0.67385
v -0.68488 -0.04000 -0.67385
v -0.40491 0.04000 -0.95714
v -0.40491 -0.04000 -0.95714
v -0.36046 0.04000 -0.89062
v -0.36046 -0.04000 -0.89062
v -0.39049 0.04000 -0.96311
v -0.39049 -0.04000 -0.96311
v -0.37488 0.04000 -0.88465
v -0.37488 -0.04000 -0.88465
v -0.00780 0.04000 -1.03923
v -0.00780 -0.04000 -1.03923
v 0.00780 0.04000 -0.96077
v 0.00780 -0.04000 -0.96077
v 0.00780 0.04000 -1.03923
v 0.00780 -0.04000 -1.03923
v -0.00780 0.04000 -0.96077
v -0.00780 -0.04000 -0.96077
v 0.39049 0.04000 -0.96311
v 0.39049 -0.04000 -0.96311
v 0.37488 0.04000 -0.88465
v 0.37488 -0.04000 -0.88465
v 0.40491 0.04000 -0.95714
v 0.40491 -0.04000 -0.95714
v 0.36046 0.04000 -0.89062
v 0.36046 -0.04000 -0.89062
v 0.72933 0.04000 -0.74037
v 0.72933 -0.04000 -0.74037
v 0.68488 0.04000 -0.67385
v 0.68488 -0.04000 -0.67385
v 0.74037 0.04000 -0.72933
v 0.74037 -0.04000 -0.72933
v 0.67385 0.04000 -0.68488
v 0.67385 -0.04000 -0.68488
v 0.95714 0.04000 -0.40491
v 0.95714 -0.04000 -0.40491
v 0.89062 0.04000 -0.36046
v 0.89062 -0.04000 -0.36046
v 0.96311 0.04000 -0.39049
v 0.96311 -0.04000 -0.39049
v 0.88465 0.04000 -0.37488
v 0.88465 -0.04000 -0.37488
v 1.03923 0.04000 -0.00780
v 1.03923 -0.04000 -0.00780
v 0.96077 0.04000 0.00780
v 0.96077 -0.04000 0.00780
v 1.04000 0.00000 0.04000
v 0.96000 0.00000 0.04000
v 1.04000 0.00000 -0.04000
v 0.96000 0.00000 -0.04000
v 1.04000 1.00000 0.04000
v 0.96000 1.00000 0.04000
v 1.04000 1.00000 -0.04000
v 0.96000 1.00000 -0.04000
v 0.74711 0.00000 0.74711
v 0.66711 0.00000 0.74711
v 0.74711 0.00000 0.66711
v 0.66711 0.00000 0.66711
v 0.74711 1.00000 0.74711
v 0.66711 1.00000 0.74711
v 0.74711 1.00000 0.66711
v 0.66711 1.00000 0.66711
v 0.04000 0.00000 1.04000
v -0.04000 0.00000 1.04000
v 0.04000 0.00000 0.96000
v -0.04000 0.00000 0.96000
v 0.04000 1.00000 1.04000
v -0.04000 1.00000 1.04000
v 0.04000 1.00000 0.96000
v -0.04000 1.00000 0.96000
v -0.66711 0.00000 0.74711
v -0.74711 0.00000 0.74711
v -0.66711 0.00000 0.66711
v -0.74711 0.00000 0.66711
v -0.66711 1.00000 0.74711
v -0.74711 1.00000 0.74711
v -0.66711 1.00000 0.66711
v -0.74711 1.00000 0.66711
v -0.96000 0.00000 0.04000
v -1.04000 0.00000 0.04000
v -0.96000 0.00000 -0.04000
v -1.04000 0.00000 -0.04000
v -0.96000 1.00000 0.04000
v -1.04000 1.00000 0.04000
v -0.96000 1.00000 -0.04000
v -1.04000 1.00000 -0.04000
v -0.66711 0.00000 -0.66711
v -0.74711 0.00000 -0.66711
v -0.66711 0.00000 -0.74711
v -0.74711 0.00000 -0.74711
v -0.66711 1.00000 -0.66711
v -0.74711 1.00000 -0.66711
v -0.66711 1.00000 -0.74711
v -0.74711 1.00000 -0.74711
v 0.04000 0.00000 -0.96000
v -0.04000 0.00000 -0.96000
v 0.04000 0.00000 -1.04000
v -0.04000 0.00000 -1.04000
v 0.04000 1.00000 -0.96000
v -0.04000 1.00000 -0.96000
v 0.04000 1.00000 -1.04000
v -0.04000 1.00000 -1.04000
v 0.74711 0.00000 -0.66711
v 0.66711 0.00000 -0.66711
v 0.74711 0.00000 -0.74711
v 0.66711 0.00000 -0.74711
v 0.74711 1.00000 -0.66711
v 0.66711 1.00000 -0.66711
v 0.74711 1.00000 -0.74711
v 0.66711 1.00000 -0.74711
f 1 2 4 3
f 5 6 8 7
f 1 2 6 5
f 2 4 8 6
f 4 3 7 8
f 3 1 5 7
f 9 10 12 11
f 13 14 16 15
f 9 10 14 13
f 10 12 16 14
f 12 11 15 16
f 11 9 13 15
f 17 18 20 19
f 21 22 24 23
f 17 18 22 21
f 18 20 24 22
f 20 19 23 24
f 19 17 21 23
f 25 26 28 27
f 29 30 32 31
f 25 26 30 29
f 26 28 32 30
f 28 27 31 32
f 27 25 29 31
f 33 34 36 35
f 37 38 40 39
f 33 34 38 37
f 34 36 40 38
f 36 35 39 40
f 35 33 37 39
f 41 42 44 43
f 45 46 48 47
f 41 42 46 45
f 42 44 48 46
f 44 43 47 48
f 43 41 45 47
f 49 50 52 51
f 53 54 56 55
f 49 50 54 53
f 50 52 56 54
f 52 51 55 56
f 51 49 53 55
f 57 58 60 59
f 61 62 64 63
f 57 58 62 61
f 58 60 64 62
f 60 59 63 64
f 59 57 61 63
f 65 66 68 67
f 69 70 72 71
f 65 66 70 69
f 66 68 72 70
f 68 67 71 72
f 67 65 69 71
f 73 74 76 75
f 77 78 80 79
f 73 74 78 77
f 74 76 80 78
f 76 75 79 80
f 75 73 77 79
f 81 82 84 83
f 85 86 88 87
f 81 82 86 85
f 82 84 88 86
f 84 83 87 88
f 83 81 85 87
f 89 90 92 91
f 93 94 96 95
f 89 90 94 93
f 90 92 96 94
f 92 91 95 96
f 91 89 93 95
f 97 98 100 99
f 101 102 104 103
f 97 98 102 101
f 98 100 104 102
f 100 99 103 104
f 99 97 101 103
f 105 106 108 107
f 109 110 112 111
f 105 106 110 109
f 106 108 112 110
f 108 107 111 112
f 107 105 109 111
f 113 114 116 115
f 117 118 120 119
f 113 114 118 117
f 114 116 120 118
f 116 115 119 120
f 115 113 117 119
f 121 122 124 123
f 125 126 128 127
f 121 122 126 125
f 122 124 128 126
f 124 123 127 128
f 123 121 125 127
f 129 130 132 131
f 133 134 136 135
f 129 130 134 133
f 130 132 136 134
f 132 131 135 136
f 131 129 133 135
f 137 138 140 139
f 141 142 144 143
f 137 138 142 141
f 138 140 144 142
f 140 139 143 144
f 139 137 141 143
f 145 146 148 147
f 149 150 152 151
f 145 146 150 149
f 146 148 152 150
f 148 147 151 152
f 147 145 149 151
f 153 154 156 155
f 157 158 160 159
f 153 154 158 157
f 154 156 160 158
f 156 155 159 160
f 155 153 157 159
f 161 162 164 163
f 165 166 168 167
f 161 162 166 165
f 162 164 168 166
f 164 163 167 168
f 163 161 165 167
f 169 170 172 171
f 173 174 176 175
f 169 170 174 173
f 170 172 176 174
f 172 171 175 176
f 171 169 173 175
f 177 178 180 179
f 181 182 184 183
f 177 178 182 181
f 178 180 184 182
f 180 179 183 184
f 179 177 181 183
f 185 186 188 187
f 189 190 192 191
f 185 186 190 189
f 186 188 192 190
f 188 187 191 192
f 187 185 189 191
f 193 194 196 195
f 197 198 200 199
f 193 194 198 197
f 194 196 200 198
f 196 195 199 200
f 195 193 197 199
f 201 202 204 203
f 205 206 208 207
f 201 202 206 205
f 202 204 208 206
f 204 203 207 208
f 203 201 205 207
f 209 210 212 211
f 213 214 216 215
f 209 210 214 213
f 210 212 216 214
f 212 211 215 216
f 211 209 213 215
f 217 218 220 219
f 221 222 224 223
f 217 218 222 221
f 218 220 224 222
f 220 219 223 224
f 219 217 221 223
f 225 226 228 227
f 229 230 232 231
f 225 226 230 229
f 226 228 232 230
f 228 227 231 232
f 227 225 229 231
f 233 234 236 235
f 237 238 240 239
f 233 234 238 237
f 234 236 240 238
f 236 235 239 240
f 235 233 237 239
f 241 242 244 243
f 245 246 248 247
f 241 242 246 245
f 242 244 248 246
f 244 243 247 248
f 243 241 245 247
f 249 250 252 251
f 253 254 256 255
f 249 250 254 253
f 250 252 256 254
f 252 251 255 256
f 251 249 253 255
f 257 258 260 259
f 261 262 264 263
f 257 258 262 261
f 258 260 264 262
f 260 259 263 264
f 259 257 261 263
f 265 266 268 267
f 269 270 272 271
f 265 266 270 269
f 266 268 272 270
f 268 267 271 272
f 267 265 269 271
f 273 274 276 275
f 277 278 280 279
f 273 274 278 277
f 274 276 280 278
f 276 275 279 280
f 275 273 277 279
f 281 282 284 283
f 285 286 288 287
f 281 282 286 285
f 282 284 288 286
f 284 283 287 288
f 283 281 285 287
f 289 290 292 291
f 293 294 296 295
f 289 290 294 293
f 290 292 296 294
f 292 291 295 296
f 291 289 293 295
f 297 298 300 299
f 301 302 304 303
f 297 298 302 301
f 298 300 304 302
f 300 299 303 304
f 299 297 301 303
f 305 306 308 307
f 309 310 312 311
f 305 306 310 309
f 306 308 312 310
f 308 307 311 312
f 307 305 309 311
f 313 314 316 315
f 317 318 320 319
f 313 314 318 317
f 314 316 320 318
f 316 315 319 320
f 315 313 317 319
