# cylinder.obj  -  Mac silhouette overlay (radius=1, height=1, base at y=0)
o cylinder
v 1.000000 1.000000 0.000000
v 0.991445 1.000000 0.130526
v 0.965926 1.000000 0.258819
v 0.923880 1.000000 0.382683
v 0.866025 1.000000 0.500000
v 0.793353 1.000000 0.608761
v 0.707107 1.000000 0.707107
v 0.608761 1.000000 0.793353
v 0.500000 1.000000 0.866025
v 0.382683 1.000000 0.923880
v 0.258819 1.000000 0.965926
v 0.130526 1.000000 0.991445
v 0.000000 1.000000 1.000000
v -0.130526 1.000000 0.991445
v -0.258819 1.000000 0.965926
v -0.382683 1.000000 0.923880
v -0.500000 1.000000 0.866025
v -0.608761 1.000000 0.793353
v -0.707107 1.000000 0.707107
v -0.793353 1.000000 0.608761
v -0.866025 1.000000 0.500000
v -0.923880 1.000000 0.382683
v -0.965926 1.000000 0.258819
v -0.991445 1.000000 0.130526
v -1.000000 1.000000 0.000000
v -0.991445 1.000000 -0.130526
v -0.965926 1.000000 -0.258819
v -0.923880 1.000000 -0.382683
v -0.866025 1.000000 -0.500000
v -0.793353 1.000000 -0.608761
v -0.707107 1.000000 -0.707107
v -0.608761 1.000000 -0.793353
v -0.500000 1.000000 -0.866025
v -0.382683 1.000000 -0.923880
v -0.258819 1.000000 -0.965926
v -0.130526 1.000000 -0.991445
v -0.000000 1.000000 -1.000000
v 0.130526 1.000000 -0.991445
v 0.258819 1.000000 -0.965926
v 0.382683 1.000000 -0.923880
v 0.500000 1.000000 -0.866025
v 0.608761 1.000000 -0.793353
v 0.707107 1.000000 -0.707107
v 0.793353 1.000000 -0.608761
v 0.866025 1.000000 -0.500000
v 0.923880 1.000000 -0.382683
v 0.965926 1.000000 -0.258819
v 0.991445 1.000000 -0.130526
v 1.000000 0.000000 0.000000
v 0.991445 0.000000 0.130526
v 0.965926 0.000000 0.258819
v 0.923880 0.000000 0.382683
v 0.866025 0.000000 0.500000
v 0.793353 0.000000 0.608761
v 0.707107 0.000000 0.707107
v 0.608761 0.000000 0.793353
v 0.500000 0.000000 0.866025
v 0.382683 0.000000 0.923880
v 0.258819 0.000000 0.965926
v 0.130526 0.000000 0.991445
v 0.000000 0.000000 1.000000
v -0.130526 0.000000 0.991445
v -0.258819 0.000000 0.965926
v -0.382683 0.000000 0.923880
v -0.500000 0.000000 0.866025
v -0.608761 0.000000 0.793353
v -0.707107 0.000000 0.707107
v -0.793353 0.000000 0.608761
v -0.866025 0.000000 0.500000
v -0.923880 0.000000 0.382683
v -0.965926 0.000000 0.258819
v -0.991445 0.000000 0.130526
v -1.000000 0.000000 0.000000
v -0.991445 0.000000 -0.130526
v -0.965926 0.000000 -0.258819
v -0.923880 0.000000 -0.382683
v -0.866025 0.000000 -0.500000
v -0.793353 0.000000 -0.608761
v -0.707107 0.000000 -0.707107
v -0.608761 0.000000 -0.793353
v -0.500000 0.000000 -0.866025
v -0.382683 0.000000 -0.923880
v -0.258819 0.000000 -0.965926
v -0.130526 0.000000 -0.991445
v -0.000000 0.000000 -1.000000
v 0.130526 0.000000 -0.991445
v 0.258819 0.000000 -0.965926
v 0.382683 0.000000 -0.923880
v 0.500000 0.000000 -0.866025
v 0.608761 0.000000 -0.793353
v 0.707107 0.000000 -0.707107
v 0.793353 0.000000 -0.608761
v 0.866025 0.000000 -0.500000
v 0.923880 0.000000 -0.382683
v 0.965926 0.000000 -0.258819
v 0.991445 0.000000 -0.130526
v 0.000000 1.000000 0.000000
v 0.000000 0.000000 0.000000
f 1 49 50 2
f 2 50 51 3
f 3 51 52 4
f 4 52 53 5
f 5 53 54 6
f 6 54 55 7
f 7 55 56 8
f 8 56 57 9
f 9 57 58 10
f 10 58 59 11
f 11 59 60 12
f 12 60 61 13
f 13 61 62 14
f 14 62 63 15
f 15 63 64 16
f 16 64 65 17
f 17 65 66 18
f 18 66 67 19
f 19 67 68 20
f 20 68 69 21
f 21 69 70 22
f 22 70 71 23
f 23 71 72 24
f 24 72 73 25
f 25 73 74 26
f 26 74 75 27
f 27 75 76 28
f 28 76 77 29
f 29 77 78 30
f 30 78 79 31
f 31 79 80 32
f 32 80 81 33
f 33 81 82 34
f 34 82 83 35
f 35 83 84 36
f 36 84 85 37
f 37 85 86 38
f 38 86 87 39
f 39 87 88 40
f 40 88 89 41
f 41 89 90 42
f 42 90 91 43
f 43 91 92 44
f 44 92 93 45
f 45 93 94 46
f 46 94 95 47
f 47 95 96 48
f 48 96 49 1
f 97 2 1
f 97 3 2
f 97 4 3
f 97 5 4
f 97 6 5
f 97 7 6
f 97 8 7
f 97 9 8
f 97 10 9
f 97 11 10
f 97 12 11
f 97 13 12
f 97 14 13
f 97 15 14
f 97 16 15
f 97 17 16
f 97 18 17
f 97 19 18
f 97 20 19
f 97 21 20
f 97 22 21
f 97 23 22
f 97 24 23
f 97 25 24
f 97 26 25
f 97 27 26
f 97 28 27
f 97 29 28
f 97 30 29
f 97 31 30
f 97 32 31
f 97 33 32
f 97 34 33
f 97 35 34
f 97 36 35
f 97 37 36
f 97 38 37
f 97 39 38
f 97 40 39
f 97 41 40
f 97 42 41
f 97 43 42
f 97 44 43
f 97 45 44
f 97 46 45
f 97 47 46
f 97 48 47
f 97 1 48
f 98 49 50
f 98 50 51
f 98 51 52
f 98 52 53
f 98 53 54
f 98 54 55
f 98 55 56
f 98 56 57
f 98 57 58
f 98 58 59
f 98 59 60
f 98 60 61
f 98 61 62
f 98 62 63
f 98 63 64
f 98 64 65
f 98 65 66
f 98 66 67
f 98 67 68
f 98 68 69
f 98 69 70
f 98 70 71
f 98 71 72
f 98 72 73
f 98 73 74
f 98 74 75
f 98 75 76
f 98 76 77
f 98 77 78
f 98 78 79
f 98 79 80
f 98 80 81
f 98 81 82
f 98 82 83
f 98 83 84
f 98 84 85
f 98 85 86
f 98 86 87
f 98 87 88
f 98 88 89
f 98 89 90
f 98 90 91
f 98 91 92
f 98 92 93
f 98 93 94
f 98 94 95
f 98 95 96
f 98 96 49
