g silh_new_long_1in
v -0 0.000321194326 -1.90383077
v 1.79507375 -3.19731583E-07 -2.40114331
v 1.47036397 -3.79383408E-07 -2.84912109
v 2.00016642 0.000321194326 -1.90383077
v 1.04253602 -4.21221131E-07 -3.16331697
v 2.00016642 0.000321702857 1.91503835
v 0.61488086 -4.4783468E-07 -3.36318135
v -0 0.000321702857 1.91503823
v 1.47036397 0.999999642 -2.84912133
v 1.04253602 0.999999583 -3.1633172
v 1.79507375 0.999999702 -2.40114355
v 0.61488086 0.999999523 -3.36318159
v -0 0.999678314 -1.90383089
v 2.00016642 0.999678314 -1.90383089
v -0 0.999999523 -3.46068621
v -0 0.999678791 1.91503811
v 2.00016642 0.999678791 1.91503823
v -0 -4.608182E-07 -3.46068597
v 1.82142329 3.1795102E-07 2.38777161
v 1.82142329 1.00000036 2.38777137
v -0.61488086 0.999999523 -3.36318159
v 1.52951431 3.70640919E-07 2.7834661
v 1.52951431 1.00000036 2.78346586
v 1.07117271 1.00000048 3.16235137
v -2.00004268 0.999678791 1.91503823
v 1.07117271 4.21092579E-07 3.16235161
v 0.61488086 4.48775808E-07 3.37024903
v -0 4.61759583E-07 3.46775556
v 0.61488086 1.00000048 3.37024879
v -0.61488086 -4.4783468E-07 -3.36318135
v -0 1.00000048 3.46775532
v -1.04253602 0.999999583 -3.1633172
v -0.61488086 4.48775808E-07 3.37024903
v -1.04253602 -4.21221131E-07 -3.16331697
v -0.61488086 1.00000048 3.37024879
v -1.47036397 0.999999642 -2.84912133
v -1.07117271 4.21092579E-07 3.16235161
v -1.47036397 -3.79383408E-07 -2.84912109
v -1.79507375 0.999999702 -2.40114355
v -1.07117271 1.00000048 3.16235137
v -1.79507375 -3.19731583E-07 -2.40114331
v -2.00004268 0.999678314 -1.90383089
v -2.00004268 0.000321194326 -1.90383077
v -2.00004268 0.000321702857 1.91503835
v -1.52951431 3.70640919E-07 2.7834661
v -1.52951431 1.00000036 2.78346586
v -1.82142329 1.00000036 2.38777137
v -1.82142329 3.1795102E-07 2.38777161
vn -0 -1 0
vn 0.702909827 -0.673609495 -0.228403121
vn 0.597922504 -0.673625469 -0.434416264
vn 0.739097834 -0.673598051 0
vn 0.434390396 -0.673585176 -0.597986639
vn 0.739097834 -0.673598051 0
vn 0.228402525 -0.673507571 -0.703007638
vn -0 -1 0
vn 0.597922444 0.67362529 -0.434416443
vn 0.434390366 0.673584998 -0.597986817
vn 0.702909887 0.673609436 -0.2284033
vn 0.228402525 0.673507333 -0.703007877
vn -0 1 0
vn 0.739097834 0.673598051 0
vn -0 0.673597932 -0.739097953
vn -0 1 0
vn 0.739097834 0.673598051 0
vn -0 -0.67359823 -0.739097774
vn 0.702909887 -0.673609436 0.2284033
vn 0.702909827 0.673609495 0.228403121
vn -0.228403196 0.673609316 -0.702909946
vn 0.597986698 -0.673584998 0.434390455
vn 0.597986758 0.673585176 0.434390277
vn 0.434416384 0.673625469 0.597922385
vn -0.739097834 0.673598051 0
vn 0.434416354 -0.67362529 0.597922564
vn 0.228403196 -0.673609316 0.702909946
vn -0 -0.673493445 0.739193082
vn 0.228403226 0.673609614 0.702909768
vn -0.228403226 -0.673609614 -0.702909768
vn -0 0.673493803 0.739192903
vn -0.434500784 0.673501134 -0.598001182
vn -0.228402525 -0.673507333 0.703007877
vn -0.434500784 -0.673501253 -0.598000944
vn -0.228402525 0.673507571 0.703007638
vn -0.598001063 0.673501134 -0.434500873
vn -0.434500784 -0.673501134 0.598001182
vn -0.598001063 -0.673501253 -0.434500694
vn -0.702909887 0.673609436 -0.2284033
vn -0.434500784 0.673501253 0.598000944
vn -0.702909827 -0.673609495 -0.228403121
vn -0.739097834 0.673598051 0
vn -0.739097834 -0.673598051 0
vn -0.739097834 -0.673598051 0
vn -0.598001063 -0.673501134 0.434500873
vn -0.598001063 0.673501253 0.434500694
vn -0.702909827 0.673609495 0.228403121
vn -0.702909887 -0.673609436 0.2284033
g silh_new_long_1in_0
f 3//3 2//2 1//1
f 2//2 4//4 1//1
f 5//5 3//3 1//1
f 1//1 4//4 6//6
f 7//7 5//5 1//1
f 8//8 1//1 6//6
f 3//3 9//9 2//2
f 5//5 10//10 3//3
f 10//10 9//9 3//3
f 9//9 11//11 2//2
f 2//2 11//11 4//4
f 12//12 10//10 5//5
f 7//7 12//12 5//5
f 9//9 10//10 13//13
f 11//11 9//9 13//13
f 10//10 12//12 13//13
f 14//14 11//11 13//13
f 11//11 14//14 4//4
f 12//12 15//15 13//13
f 15//15 12//12 7//7
f 14//14 13//13 16//16
f 4//4 14//14 17//17
f 17//17 14//14 16//16
f 6//6 4//4 17//17
f 18//18 15//15 7//7
f 18//18 7//7 1//1
f 6//6 17//17 19//19
f 6//6 19//19 8//8
f 20//20 17//17 16//16
f 17//17 20//20 19//19
f 21//21 15//15 18//18
f 15//15 21//21 13//13
f 19//19 22//22 8//8
f 19//19 20//20 22//22
f 23//23 20//20 16//16
f 20//20 23//23 22//22
f 24//24 23//23 16//16
f 16//16 13//13 25//25
f 22//22 26//26 8//8
f 22//22 23//23 26//26
f 23//23 24//24 26//26
f 26//26 27//27 8//8
f 26//26 24//24 27//27
f 27//27 28//28 8//8
f 24//24 29//29 27//27
f 29//29 24//24 16//16
f 27//27 29//29 28//28
f 30//30 21//21 18//18
f 30//30 18//18 1//1
f 29//29 31//31 28//28
f 31//31 29//29 16//16
f 32//32 21//21 30//30
f 21//21 32//32 13//13
f 28//28 31//31 33//33
f 28//28 33//33 8//8
f 34//34 32//32 30//30
f 34//34 30//30 1//1
f 31//31 35//35 33//33
f 35//35 31//31 16//16
f 36//36 32//32 34//34
f 32//32 36//36 13//13
f 33//33 35//35 37//37
f 33//33 37//37 8//8
f 38//38 36//36 34//34
f 38//38 34//34 1//1
f 36//36 39//39 13//13
f 39//39 36//36 38//38
f 35//35 40//40 37//37
f 40//40 35//35 16//16
f 41//41 38//38 1//1
f 41//41 39//39 38//38
f 39//39 42//42 13//13
f 42//42 39//39 41//41
f 13//13 42//42 25//25
f 43//43 41//41 1//1
f 43//43 42//42 41//41
f 43//43 1//1 8//8
f 42//42 43//43 44//44
f 25//25 42//42 44//44
f 44//44 43//43 8//8
f 37//37 45//45 8//8
f 37//37 40//40 45//45
f 46//46 40//40 16//16
f 40//40 46//46 45//45
f 47//47 16//16 25//25
f 47//47 25//25 44//44
f 47//47 46//46 16//16
f 48//48 44//44 8//8
f 45//45 48//48 8//8
f 45//45 46//46 48//48
f 48//48 47//47 44//44
f 46//46 47//47 48//48
