o stadium
v -1.96850 0.00000 1.47638
v -1.95166 0.00000 1.73332
v -1.90142 0.00000 1.98587
v -1.81866 0.00000 2.22969
v -1.70477 0.00000 2.46063
v -1.56172 0.00000 2.67473
v -1.39194 0.00000 2.86832
v -1.19835 0.00000 3.03810
v -0.98425 0.00000 3.18115
v -0.75331 0.00000 3.29504
v -0.50949 0.00000 3.37780
v -0.25694 0.00000 3.42804
v -0.00000 0.00000 3.44488
v 0.25694 0.00000 3.42804
v 0.50949 0.00000 3.37780
v 0.75331 0.00000 3.29504
v 0.98425 0.00000 3.18115
v 1.19835 0.00000 3.03810
v 1.39194 0.00000 2.86832
v 1.56172 0.00000 2.67473
v 1.70477 0.00000 2.46063
v 1.81866 0.00000 2.22969
v 1.90142 0.00000 1.98587
v 1.95166 0.00000 1.73332
v 1.96850 0.00000 1.47638
v 1.96850 0.00000 -1.47638
v 1.95166 0.00000 -1.73332
v 1.90142 0.00000 -1.98587
v 1.81866 0.00000 -2.22969
v 1.70477 0.00000 -2.46063
v 1.56172 0.00000 -2.67473
v 1.39194 0.00000 -2.86832
v 1.19835 0.00000 -3.03810
v 0.98425 0.00000 -3.18115
v 0.75331 0.00000 -3.29504
v 0.50949 0.00000 -3.37780
v 0.25694 0.00000 -3.42804
v 0.00000 0.00000 -3.44488
v -0.25694 0.00000 -3.42804
v -0.50949 0.00000 -3.37780
v -0.75331 0.00000 -3.29504
v -0.98425 0.00000 -3.18115
v -1.19835 0.00000 -3.03810
v -1.39194 0.00000 -2.86832
v -1.56172 0.00000 -2.67473
v -1.70477 0.00000 -2.46063
v -1.81866 0.00000 -2.22969
v -1.90142 0.00000 -1.98587
v -1.95166 0.00000 -1.73332
v -1.96850 0.00000 -1.47638
v -1.96850 1.00000 1.47638
v -1.95166 1.00000 1.73332
v -1.90142 1.00000 1.98587
v -1.81866 1.00000 2.22969
v -1.70477 1.00000 2.46063
v -1.56172 1.00000 2.67473
v -1.39194 1.00000 2.86832
v -1.19835 1.00000 3.03810
v -0.98425 1.00000 3.18115
v -0.75331 1.00000 3.29504
v -0.50949 1.00000 3.37780
v -0.25694 1.00000 3.42804
v -0.00000 1.00000 3.44488
v 0.25694 1.00000 3.42804
v 0.50949 1.00000 3.37780
v 0.75331 1.00000 3.29504
v 0.98425 1.00000 3.18115
v 1.19835 1.00000 3.03810
v 1.39194 1.00000 2.86832
v 1.56172 1.00000 2.67473
v 1.70477 1.00000 2.46063
v 1.81866 1.00000 2.22969
v 1.90142 1.00000 1.98587
v 1.95166 1.00000 1.73332
v 1.96850 1.00000 1.47638
v 1.96850 1.00000 -1.47638
v 1.95166 1.00000 -1.73332
v 1.90142 1.00000 -1.98587
v 1.81866 1.00000 -2.22969
v 1.70477 1.00000 -2.46063
v 1.56172 1.00000 -2.67473
v 1.39194 1.00000 -2.86832
v 1.19835 1.00000 -3.03810
v 0.98425 1.00000 -3.18115
v 0.75331 1.00000 -3.29504
v 0.50949 1.00000 -3.37780
v 0.25694 1.00000 -3.42804
v 0.00000 1.00000 -3.44488
v -0.25694 1.00000 -3.42804
v -0.50949 1.00000 -3.37780
v -0.75331 1.00000 -3.29504
v -0.98425 1.00000 -3.18115
v -1.19835 1.00000 -3.03810
v -1.39194 1.00000 -2.86832
v -1.56172 1.00000 -2.67473
v -1.70477 1.00000 -2.46063
v -1.81866 1.00000 -2.22969
v -1.90142 1.00000 -1.98587
v -1.95166 1.00000 -1.73332
v -1.96850 1.00000 -1.47638
v 0.00000 0.00000 0.00000
v 0.00000 1.00000 0.00000
f 1 2 52
f 1 52 51
f 101 2 1
f 102 51 52
f 2 3 53
f 2 53 52
f 101 3 2
f 102 52 53
f 3 4 54
f 3 54 53
f 101 4 3
f 102 53 54
f 4 5 55
f 4 55 54
f 101 5 4
f 102 54 55
f 5 6 56
f 5 56 55
f 101 6 5
f 102 55 56
f 6 7 57
f 6 57 56
f 101 7 6
f 102 56 57
f 7 8 58
f 7 58 57
f 101 8 7
f 102 57 58
f 8 9 59
f 8 59 58
f 101 9 8
f 102 58 59
f 9 10 60
f 9 60 59
f 101 10 9
f 102 59 60
f 10 11 61
f 10 61 60
f 101 11 10
f 102 60 61
f 11 12 62
f 11 62 61
f 101 12 11
f 102 61 62
f 12 13 63
f 12 63 62
f 101 13 12
f 102 62 63
f 13 14 64
f 13 64 63
f 101 14 13
f 102 63 64
f 14 15 65
f 14 65 64
f 101 15 14
f 102 64 65
f 15 16 66
f 15 66 65
f 101 16 15
f 102 65 66
f 16 17 67
f 16 67 66
f 101 17 16
f 102 66 67
f 17 18 68
f 17 68 67
f 101 18 17
f 102 67 68
f 18 19 69
f 18 69 68
f 101 19 18
f 102 68 69
f 19 20 70
f 19 70 69
f 101 20 19
f 102 69 70
f 20 21 71
f 20 71 70
f 101 21 20
f 102 70 71
f 21 22 72
f 21 72 71
f 101 22 21
f 102 71 72
f 22 23 73
f 22 73 72
f 101 23 22
f 102 72 73
f 23 24 74
f 23 74 73
f 101 24 23
f 102 73 74
f 24 25 75
f 24 75 74
f 101 25 24
f 102 74 75
f 25 26 76
f 25 76 75
f 101 26 25
f 102 75 76
f 26 27 77
f 26 77 76
f 101 27 26
f 102 76 77
f 27 28 78
f 27 78 77
f 101 28 27
f 102 77 78
f 28 29 79
f 28 79 78
f 101 29 28
f 102 78 79
f 29 30 80
f 29 80 79
f 101 30 29
f 102 79 80
f 30 31 81
f 30 81 80
f 101 31 30
f 102 80 81
f 31 32 82
f 31 82 81
f 101 32 31
f 102 81 82
f 32 33 83
f 32 83 82
f 101 33 32
f 102 82 83
f 33 34 84
f 33 84 83
f 101 34 33
f 102 83 84
f 34 35 85
f 34 85 84
f 101 35 34
f 102 84 85
f 35 36 86
f 35 86 85
f 101 36 35
f 102 85 86
f 36 37 87
f 36 87 86
f 101 37 36
f 102 86 87
f 37 38 88
f 37 88 87
f 101 38 37
f 102 87 88
f 38 39 89
f 38 89 88
f 101 39 38
f 102 88 89
f 39 40 90
f 39 90 89
f 101 40 39
f 102 89 90
f 40 41 91
f 40 91 90
f 101 41 40
f 102 90 91
f 41 42 92
f 41 92 91
f 101 42 41
f 102 91 92
f 42 43 93
f 42 93 92
f 101 43 42
f 102 92 93
f 43 44 94
f 43 94 93
f 101 44 43
f 102 93 94
f 44 45 95
f 44 95 94
f 101 45 44
f 102 94 95
f 45 46 96
f 45 96 95
f 101 46 45
f 102 95 96
f 46 47 97
f 46 97 96
f 101 47 46
f 102 96 97
f 47 48 98
f 47 98 97
f 101 48 47
f 102 97 98
f 48 49 99
f 48 99 98
f 101 49 48
f 102 98 99
f 49 50 100
f 49 100 99
f 101 50 49
f 102 99 100
f 50 1 51
f 50 51 100
f 101 1 50
f 102 100 51
