o stadium
v -1.96850 0.00000 1.47638
v -1.95166 0.00000 1.73332
v -1.90142 0.00000 1.98587
v -1.81866 0.00000 2.22969
v -1.70477 0.00000 2.46063
v -1.56172 0.00000 2.67473
v -1.39194 0.00000 2.86832
v -1.19835 0.00000 3.03810
v -0.98425 0.00000 3.18115
v -0.75331 0.00000 3.29504
v -0.50949 0.00000 3.37780
v -0.25694 0.00000 3.42804
v -0.00000 0.00000 3.44488
v 0.25694 0.00000 3.42804
v 0.50949 0.00000 3.37780
v 0.75331 0.00000 3.29504
v 0.98425 0.00000 3.18115
v 1.19835 0.00000 3.03810
v 1.39194 0.00000 2.86832
v 1.56172 0.00000 2.67473
v 1.70477 0.00000 2.46063
v 1.81866 0.00000 2.22969
v 1.90142 0.00000 1.98587
v 1.95166 0.00000 1.73332
v 1.96850 0.00000 1.47638
v 1.96850 0.00000 -1.47638
v 1.95166 0.00000 -1.73332
v 1.90142 0.00000 -1.98587
v 1.81866 0.00000 -2.22969
v 1.70477 0.00000 -2.46063
v 1.56172 0.00000 -2.67473
v 1.39194 0.00000 -2.86832
v 1.19835 0.00000 -3.03810
v 0.98425 0.00000 -3.18115
v 0.75331 0.00000 -3.29504
v 0.50949 0.00000 -3.37780
v 0.25694 0.00000 -3.42804
v 0.00000 0.00000 -3.44488
v -0.25694 0.00000 -3.42804
v -0.50949 0.00000 -3.37780
v -0.75331 0.00000 -3.29504
v -0.98425 0.00000 -3.18115
v -1.19835 0.00000 -3.03810
v -1.39194 0.00000 -2.86832
v -1.56172 0.00000 -2.67473
v -1.70477 0.00000 -2.46063
v -1.81866 0.00000 -2.22969
v -1.90142 0.00000 -1.98587
v -1.95166 0.00000 -1.73332
v -1.96850 0.00000 -1.47638
v -1.96850 1.00000 1.47638
v -1.95166 1.00000 1.73332
v -1.90142 1.00000 1.98587
v -1.81866 1.00000 2.22969
v -1.70477 1.00000 2.46063
v -1.56172 1.00000 2.67473
v -1.39194 1.00000 2.86832
v -1.19835 1.00000 3.03810
v -0.98425 1.00000 3.18115
v -0.75331 1.00000 3.29504
v -0.50949 1.00000 3.37780
v -0.25694 1.00000 3.42804
v -0.00000 1.00000 3.44488
v 0.25694 1.00000 3.42804
v 0.50949 1.00000 3.37780
v 0.75331 1.00000 3.29504
v 0.98425 1.00000 3.18115
v 1.19835 1.00000 3.03810
v 1.39194 1.00000 2.86832
v 1.56172 1.00000 2.67473
v 1.70477 1.00000 2.46063
v 1.81866 1.00000 2.22969
v 1.90142 1.00000 1.98587
v 1.95166 1.00000 1.73332
v 1.96850 1.00000 1.47638
v 1.96850 1.00000 -1.47638
v 1.95166 1.00000 -1.73332
v 1.90142 1.00000 -1.98587
v 1.81866 1.00000 -2.22969
v 1.70477 1.00000 -2.46063
v 1.56172 1.00000 -2.67473
v 1.39194 1.00000 -2.86832
v 1.19835 1.00000 -3.03810
v 0.98425 1.00000 -3.18115
v 0.75331 1.00000 -3.29504
v 0.50949 1.00000 -3.37780
v 0.25694 1.00000 -3.42804
v 0.00000 1.00000 -3.44488
v -0.25694 1.00000 -3.42804
v -0.50949 1.00000 -3.37780
v -0.75331 1.00000 -3.29504
v -0.98425 1.00000 -3.18115
v -1.19835 1.00000 -3.03810
v -1.39194 1.00000 -2.86832
v -1.56172 1.00000 -2.67473
v -1.70477 1.00000 -2.46063
v -1.81866 1.00000 -2.22969
v -1.90142 1.00000 -1.98587
v -1.95166 1.00000 -1.73332
v -1.96850 1.00000 -1.47638
v 0.00000 0.00000 0.00000
v 0.00000 1.00000 0.00000
vt 0.00000 0.0
vt 0.01410 0.0
vt 0.02819 0.0
vt 0.04229 0.0
vt 0.05639 0.0
vt 0.07049 0.0
vt 0.08458 0.0
vt 0.09868 0.0
vt 0.11278 0.0
vt 0.12688 0.0
vt 0.14097 0.0
vt 0.15507 0.0
vt 0.16917 0.0
vt 0.18327 0.0
vt 0.19736 0.0
vt 0.21146 0.0
vt 0.22556 0.0
vt 0.23966 0.0
vt 0.25375 0.0
vt 0.26785 0.0
vt 0.28195 0.0
vt 0.29605 0.0
vt 0.31014 0.0
vt 0.32424 0.0
vt 0.33834 0.0
vt 0.50000 0.0
vt 0.51410 0.0
vt 0.52819 0.0
vt 0.54229 0.0
vt 0.55639 0.0
vt 0.57049 0.0
vt 0.58458 0.0
vt 0.59868 0.0
vt 0.61278 0.0
vt 0.62688 0.0
vt 0.64097 0.0
vt 0.65507 0.0
vt 0.66917 0.0
vt 0.68327 0.0
vt 0.69736 0.0
vt 0.71146 0.0
vt 0.72556 0.0
vt 0.73966 0.0
vt 0.75375 0.0
vt 0.76785 0.0
vt 0.78195 0.0
vt 0.79605 0.0
vt 0.81014 0.0
vt 0.82424 0.0
vt 0.83834 0.0
vt 0.00000 1.0
vt 0.01410 1.0
vt 0.02819 1.0
vt 0.04229 1.0
vt 0.05639 1.0
vt 0.07049 1.0
vt 0.08458 1.0
vt 0.09868 1.0
vt 0.11278 1.0
vt 0.12688 1.0
vt 0.14097 1.0
vt 0.15507 1.0
vt 0.16917 1.0
vt 0.18327 1.0
vt 0.19736 1.0
vt 0.21146 1.0
vt 0.22556 1.0
vt 0.23966 1.0
vt 0.25375 1.0
vt 0.26785 1.0
vt 0.28195 1.0
vt 0.29605 1.0
vt 0.31014 1.0
vt 0.32424 1.0
vt 0.33834 1.0
vt 0.50000 1.0
vt 0.51410 1.0
vt 0.52819 1.0
vt 0.54229 1.0
vt 0.55639 1.0
vt 0.57049 1.0
vt 0.58458 1.0
vt 0.59868 1.0
vt 0.61278 1.0
vt 0.62688 1.0
vt 0.64097 1.0
vt 0.65507 1.0
vt 0.66917 1.0
vt 0.68327 1.0
vt 0.69736 1.0
vt 0.71146 1.0
vt 0.72556 1.0
vt 0.73966 1.0
vt 0.75375 1.0
vt 0.76785 1.0
vt 0.78195 1.0
vt 0.79605 1.0
vt 0.81014 1.0
vt 0.82424 1.0
vt 0.83834 1.0
vt 0.5 0.5
vn -1.00000 0.00000 0.00000
vn -0.99144 0.00000 0.13053
vn -0.96593 0.00000 0.25882
vn -0.92388 0.00000 0.38268
vn -0.86603 0.00000 0.50000
vn -0.79335 0.00000 0.60876
vn -0.70711 0.00000 0.70711
vn -0.60876 0.00000 0.79335
vn -0.50000 0.00000 0.86603
vn -0.38268 0.00000 0.92388
vn -0.25882 0.00000 0.96593
vn -0.13053 0.00000 0.99144
vn -0.00000 0.00000 1.00000
vn 0.13053 0.00000 0.99144
vn 0.25882 0.00000 0.96593
vn 0.38268 0.00000 0.92388
vn 0.50000 0.00000 0.86603
vn 0.60876 0.00000 0.79335
vn 0.70711 0.00000 0.70711
vn 0.79335 0.00000 0.60876
vn 0.86603 0.00000 0.50000
vn 0.92388 0.00000 0.38268
vn 0.96593 0.00000 0.25882
vn 0.99144 0.00000 0.13053
vn 1.00000 0.00000 0.00000
vn 1.00000 0.00000 -0.00000
vn 0.99144 0.00000 -0.13053
vn 0.96593 0.00000 -0.25882
vn 0.92388 0.00000 -0.38268
vn 0.86603 0.00000 -0.50000
vn 0.79335 0.00000 -0.60876
vn 0.70711 0.00000 -0.70711
vn 0.60876 0.00000 -0.79335
vn 0.50000 0.00000 -0.86603
vn 0.38268 0.00000 -0.92388
vn 0.25882 0.00000 -0.96593
vn 0.13053 0.00000 -0.99144
vn 0.00000 0.00000 -1.00000
vn -0.13053 0.00000 -0.99144
vn -0.25882 0.00000 -0.96593
vn -0.38268 0.00000 -0.92388
vn -0.50000 0.00000 -0.86603
vn -0.60876 0.00000 -0.79335
vn -0.70711 0.00000 -0.70711
vn -0.79335 0.00000 -0.60876
vn -0.86603 0.00000 -0.50000
vn -0.92388 0.00000 -0.38268
vn -0.96593 0.00000 -0.25882
vn -0.99144 0.00000 -0.13053
vn -1.00000 0.00000 -0.00000
vn 0 -1 0
vn 0 1 0
f 1/1/1 2/2/2 52/52/2
f 1/1/1 52/52/2 51/51/1
f 101/101/51 2/2/51 1/1/51
f 102/101/52 51/51/52 52/52/52
f 2/2/2 3/3/3 53/53/3
f 2/2/2 53/53/3 52/52/2
f 101/101/51 3/3/51 2/2/51
f 102/101/52 52/52/52 53/53/52
f 3/3/3 4/4/4 54/54/4
f 3/3/3 54/54/4 53/53/3
f 101/101/51 4/4/51 3/3/51
f 102/101/52 53/53/52 54/54/52
f 4/4/4 5/5/5 55/55/5
f 4/4/4 55/55/5 54/54/4
f 101/101/51 5/5/51 4/4/51
f 102/101/52 54/54/52 55/55/52
f 5/5/5 6/6/6 56/56/6
f 5/5/5 56/56/6 55/55/5
f 101/101/51 6/6/51 5/5/51
f 102/101/52 55/55/52 56/56/52
f 6/6/6 7/7/7 57/57/7
f 6/6/6 57/57/7 56/56/6
f 101/101/51 7/7/51 6/6/51
f 102/101/52 56/56/52 57/57/52
f 7/7/7 8/8/8 58/58/8
f 7/7/7 58/58/8 57/57/7
f 101/101/51 8/8/51 7/7/51
f 102/101/52 57/57/52 58/58/52
f 8/8/8 9/9/9 59/59/9
f 8/8/8 59/59/9 58/58/8
f 101/101/51 9/9/51 8/8/51
f 102/101/52 58/58/52 59/59/52
f 9/9/9 10/10/10 60/60/10
f 9/9/9 60/60/10 59/59/9
f 101/101/51 10/10/51 9/9/51
f 102/101/52 59/59/52 60/60/52
f 10/10/10 11/11/11 61/61/11
f 10/10/10 61/61/11 60/60/10
f 101/101/51 11/11/51 10/10/51
f 102/101/52 60/60/52 61/61/52
f 11/11/11 12/12/12 62/62/12
f 11/11/11 62/62/12 61/61/11
f 101/101/51 12/12/51 11/11/51
f 102/101/52 61/61/52 62/62/52
f 12/12/12 13/13/13 63/63/13
f 12/12/12 63/63/13 62/62/12
f 101/101/51 13/13/51 12/12/51
f 102/101/52 62/62/52 63/63/52
f 13/13/13 14/14/14 64/64/14
f 13/13/13 64/64/14 63/63/13
f 101/101/51 14/14/51 13/13/51
f 102/101/52 63/63/52 64/64/52
f 14/14/14 15/15/15 65/65/15
f 14/14/14 65/65/15 64/64/14
f 101/101/51 15/15/51 14/14/51
f 102/101/52 64/64/52 65/65/52
f 15/15/15 16/16/16 66/66/16
f 15/15/15 66/66/16 65/65/15
f 101/101/51 16/16/51 15/15/51
f 102/101/52 65/65/52 66/66/52
f 16/16/16 17/17/17 67/67/17
f 16/16/16 67/67/17 66/66/16
f 101/101/51 17/17/51 16/16/51
f 102/101/52 66/66/52 67/67/52
f 17/17/17 18/18/18 68/68/18
f 17/17/17 68/68/18 67/67/17
f 101/101/51 18/18/51 17/17/51
f 102/101/52 67/67/52 68/68/52
f 18/18/18 19/19/19 69/69/19
f 18/18/18 69/69/19 68/68/18
f 101/101/51 19/19/51 18/18/51
f 102/101/52 68/68/52 69/69/52
f 19/19/19 20/20/20 70/70/20
f 19/19/19 70/70/20 69/69/19
f 101/101/51 20/20/51 19/19/51
f 102/101/52 69/69/52 70/70/52
f 20/20/20 21/21/21 71/71/21
f 20/20/20 71/71/21 70/70/20
f 101/101/51 21/21/51 20/20/51
f 102/101/52 70/70/52 71/71/52
f 21/21/21 22/22/22 72/72/22
f 21/21/21 72/72/22 71/71/21
f 101/101/51 22/22/51 21/21/51
f 102/101/52 71/71/52 72/72/52
f 22/22/22 23/23/23 73/73/23
f 22/22/22 73/73/23 72/72/22
f 101/101/51 23/23/51 22/22/51
f 102/101/52 72/72/52 73/73/52
f 23/23/23 24/24/24 74/74/24
f 23/23/23 74/74/24 73/73/23
f 101/101/51 24/24/51 23/23/51
f 102/101/52 73/73/52 74/74/52
f 24/24/24 25/25/25 75/75/25
f 24/24/24 75/75/25 74/74/24
f 101/101/51 25/25/51 24/24/51
f 102/101/52 74/74/52 75/75/52
f 25/25/25 26/26/26 76/76/26
f 25/25/25 76/76/26 75/75/25
f 101/101/51 26/26/51 25/25/51
f 102/101/52 75/75/52 76/76/52
f 26/26/26 27/27/27 77/77/27
f 26/26/26 77/77/27 76/76/26
f 101/101/51 27/27/51 26/26/51
f 102/101/52 76/76/52 77/77/52
f 27/27/27 28/28/28 78/78/28
f 27/27/27 78/78/28 77/77/27
f 101/101/51 28/28/51 27/27/51
f 102/101/52 77/77/52 78/78/52
f 28/28/28 29/29/29 79/79/29
f 28/28/28 79/79/29 78/78/28
f 101/101/51 29/29/51 28/28/51
f 102/101/52 78/78/52 79/79/52
f 29/29/29 30/30/30 80/80/30
f 29/29/29 80/80/30 79/79/29
f 101/101/51 30/30/51 29/29/51
f 102/101/52 79/79/52 80/80/52
f 30/30/30 31/31/31 81/81/31
f 30/30/30 81/81/31 80/80/30
f 101/101/51 31/31/51 30/30/51
f 102/101/52 80/80/52 81/81/52
f 31/31/31 32/32/32 82/82/32
f 31/31/31 82/82/32 81/81/31
f 101/101/51 32/32/51 31/31/51
f 102/101/52 81/81/52 82/82/52
f 32/32/32 33/33/33 83/83/33
f 32/32/32 83/83/33 82/82/32
f 101/101/51 33/33/51 32/32/51
f 102/101/52 82/82/52 83/83/52
f 33/33/33 34/34/34 84/84/34
f 33/33/33 84/84/34 83/83/33
f 101/101/51 34/34/51 33/33/51
f 102/101/52 83/83/52 84/84/52
f 34/34/34 35/35/35 85/85/35
f 34/34/34 85/85/35 84/84/34
f 101/101/51 35/35/51 34/34/51
f 102/101/52 84/84/52 85/85/52
f 35/35/35 36/36/36 86/86/36
f 35/35/35 86/86/36 85/85/35
f 101/101/51 36/36/51 35/35/51
f 102/101/52 85/85/52 86/86/52
f 36/36/36 37/37/37 87/87/37
f 36/36/36 87/87/37 86/86/36
f 101/101/51 37/37/51 36/36/51
f 102/101/52 86/86/52 87/87/52
f 37/37/37 38/38/38 88/88/38
f 37/37/37 88/88/38 87/87/37
f 101/101/51 38/38/51 37/37/51
f 102/101/52 87/87/52 88/88/52
f 38/38/38 39/39/39 89/89/39
f 38/38/38 89/89/39 88/88/38
f 101/101/51 39/39/51 38/38/51
f 102/101/52 88/88/52 89/89/52
f 39/39/39 40/40/40 90/90/40
f 39/39/39 90/90/40 89/89/39
f 101/101/51 40/40/51 39/39/51
f 102/101/52 89/89/52 90/90/52
f 40/40/40 41/41/41 91/91/41
f 40/40/40 91/91/41 90/90/40
f 101/101/51 41/41/51 40/40/51
f 102/101/52 90/90/52 91/91/52
f 41/41/41 42/42/42 92/92/42
f 41/41/41 92/92/42 91/91/41
f 101/101/51 42/42/51 41/41/51
f 102/101/52 91/91/52 92/92/52
f 42/42/42 43/43/43 93/93/43
f 42/42/42 93/93/43 92/92/42
f 101/101/51 43/43/51 42/42/51
f 102/101/52 92/92/52 93/93/52
f 43/43/43 44/44/44 94/94/44
f 43/43/43 94/94/44 93/93/43
f 101/101/51 44/44/51 43/43/51
f 102/101/52 93/93/52 94/94/52
f 44/44/44 45/45/45 95/95/45
f 44/44/44 95/95/45 94/94/44
f 101/101/51 45/45/51 44/44/51
f 102/101/52 94/94/52 95/95/52
f 45/45/45 46/46/46 96/96/46
f 45/45/45 96/96/46 95/95/45
f 101/101/51 46/46/51 45/45/51
f 102/101/52 95/95/52 96/96/52
f 46/46/46 47/47/47 97/97/47
f 46/46/46 97/97/47 96/96/46
f 101/101/51 47/47/51 46/46/51
f 102/101/52 96/96/52 97/97/52
f 47/47/47 48/48/48 98/98/48
f 47/47/47 98/98/48 97/97/47
f 101/101/51 48/48/51 47/47/51
f 102/101/52 97/97/52 98/98/52
f 48/48/48 49/49/49 99/99/49
f 48/48/48 99/99/49 98/98/48
f 101/101/51 49/49/51 48/48/51
f 102/101/52 98/98/52 99/99/52
f 49/49/49 50/50/50 100/100/50
f 49/49/49 100/100/50 99/99/49
f 101/101/51 50/50/51 49/49/51
f 102/101/52 99/99/52 100/100/52
f 50/50/50 1/1/1 51/51/1
f 50/50/50 51/51/1 100/100/50
f 101/101/51 1/1/51 50/50/51
f 102/101/52 100/100/52 51/51/52
